<?xml version="1.0" encoding="utf-8"?>
<!-- Generator: Adobe Illustrator 19.2.1, SVG Export Plug-In . SVG Version: 6.00 Build 0)  -->
<!DOCTYPE svg PUBLIC "-//W3C//DTD SVG 1.1//EN" "http://www.w3.org/Graphics/SVG/1.1/DTD/svg11.dtd">
<svg version="1.1" id="Layer_1" xmlns="http://www.w3.org/2000/svg" xmlns:xlink="http://www.w3.org/1999/xlink" x="0px" y="0px"
	 viewBox="0 0 102 152" style="enable-background:new 0 0 102 152;" xml:space="preserve">
<style type="text/css">
	.st0{fill:#FFFFFF;}
	.st1{fill:#30ACE0;stroke:#FFFFFF;stroke-width:2;}
</style>
<circle class="st0" cx="51" cy="51" r="30"/>
<title>map-marker - FontAwesome</title>
<desc>Created with Sketch.</desc>
<g id="Page-1">
	<path id="map-marker---FontAwesome" class="st1" d="M76,51c0,13.8-11.2,25-25,25S26,64.8,26,51s11.2-25,25-25S76,37.2,76,51L76,51z
		 M101,51c0-27.6-22.4-50-50-50S1,23.4,1,51c0,6,0.7,12.1,3.2,17.5l35.6,75.6c2,4.3,6.4,6.9,11.1,6.9s9.2-2.6,11.2-6.9l35.5-75.6
		C100.3,63.1,101,57,101,51L101,51z"/>
</g>
</svg>
